<svg id="Layer_1" data-name="Layer 1" xmlns="http://www.w3.org/2000/svg" viewBox="0 0 118.46 38.74"><defs><style>.cls-1{font-size:18px;fill:#a894a6;font-family:Gabriola;}.cls-2{letter-spacing:-0.01em;}.cls-3{letter-spacing:0.01em;}.cls-4{fill:#e7b467;}.cls-5{fill:#a698a6;}.cls-6{fill:#e0dde2;}.cls-7{fill:#c8c1c9;}</style></defs><text class="cls-1" transform="translate(0 26.6)">P<tspan class="cls-2" x="7.46" y="0">r</tspan><tspan x="12.55" y="0">abhjot</tspan><tspan class="cls-3" x="47.59" y="0"> </tspan><tspan x="50.96" y="0">Singh</tspan></text><path class="cls-4" d="M351.12,293.94a.53.53,0,0,1-.51-.53,20.77,20.77,0,0,1,4.22-13.06.52.52,0,1,1,.84.61,19.78,19.78,0,0,0-4,12.47A.52.52,0,0,1,351.12,293.94Z" transform="translate(-266.96 -267.34)"/><path class="cls-5" d="M384.79,276.73a2.12,2.12,0,0,1-.09.31,3,3,0,0,1-5.79-.31.21.21,0,0,0-.37-.07,4,4,0,0,0-.5,1,3.79,3.79,0,1,0,6.75-.94Z" transform="translate(-266.96 -267.34)"/><path class="cls-6" d="M384.74,274.59c-2.61-6.6-11.8-9.16-20.54-5.71-7.75,3.05-12.53,9.81-11.7,15.9a.41.41,0,0,0,.57.32,17.24,17.24,0,0,1,12.52-.87.17.17,0,0,0,.17-.29c-1.66-1.54-2.49-3.48-2-5.33a5.44,5.44,0,0,1,.23-.68,9.33,9.33,0,0,0,3.67,3,.25.25,0,0,0,.34-.14,10.85,10.85,0,0,1,4.77-5.64c4.5-2.69,9.83-2,11.92,1.44a5.83,5.83,0,0,1,.75,2.09,10.09,10.09,0,0,0-.68-4.09Z" transform="translate(-266.96 -267.34)"/><path class="cls-7" d="M385.42,278.68a9.86,9.86,0,0,0-2.92-7.48c-5-2.64-12.67-2-19.55,2.1-5.11,3.06-8.73,7.41-10.27,11.77a.41.41,0,0,0,.39,0,17.24,17.24,0,0,1,12.52-.87.17.17,0,0,0,.18-.29c-1.67-1.53-2.5-3.48-2-5.33a3.88,3.88,0,0,1,.14-.45.14.14,0,0,1,.24,0,9.35,9.35,0,0,0,3.52,2.8.25.25,0,0,0,.34-.15,10.87,10.87,0,0,1,4.77-5.63c4.5-2.69,9.83-2,11.92,1.44a5.83,5.83,0,0,1,.75,2.09Z" transform="translate(-266.96 -267.34)"/><path class="cls-7" d="M384.74,274.59c-2.2-5.55-9.05-8.25-16.37-6.91,5.29,0,9.91,2.18,12.08,6a6.41,6.41,0,0,1,4.22,2.89,5.83,5.83,0,0,1,.75,2.09,10.09,10.09,0,0,0-.68-4.09Z" transform="translate(-266.96 -267.34)"/><path class="cls-5" d="M384.74,274.59a10.08,10.08,0,0,0-2.24-3.39,14.78,14.78,0,0,0-6.2-1.57,11,11,0,0,1,4.15,4.07,6.41,6.41,0,0,1,4.22,2.89,5.83,5.83,0,0,1,.75,2.09,10.09,10.09,0,0,0-.68-4.09Z" transform="translate(-266.96 -267.34)"/></svg>