<?xml version="1.0"?>
<svg xmlns="http://www.w3.org/2000/svg" width="512" height="512" viewBox="0 0 512 512"><g><g><path d="M168.07,382.18,168,416v80H88V478.56a15.994,15.994,0,0,0-4.6-11.23L28.57,411.67A16.016,16.016,0,0,1,24,400.47V224a16,16,0,0,1,16-16H56a16,16,0,0,1,16,16v79.21a16.008,16.008,0,0,1,20.17,2.02l70.74,65.15A15.961,15.961,0,0,1,168.07,382.18Z" fill="#ffdaaa"/><path d="M344,382.18l.07,33.82v80h80V478.56a15.994,15.994,0,0,1,4.6-11.23l54.83-55.66a16.016,16.016,0,0,0,4.57-11.2V224a16,16,0,0,0-16-16h-16a16,16,0,0,0-16,16v79.21a16.008,16.008,0,0,0-20.17,2.02l-70.74,65.15A15.961,15.961,0,0,0,344,382.18Z" fill="#ffdaaa"/><path d="M368,56v64c0,22.09-50.14,40-112,40s-112-17.91-112-40V56c0,22.09,50.14,40,112,40S368,78.09,368,56Z" fill="#ffde55"/><path d="M368,120v64c0,22.09-50.14,40-112,40s-112-17.91-112-40V120c0,22.09,50.14,40,112,40S368,142.09,368,120Z" fill="#ffda44"/><path d="M368,184v64c0,22.09-50.14,40-112,40s-112-17.91-112-40V184c0,22.09,50.14,40,112,40S368,206.09,368,184Z" fill="#ebbf00"/><path d="M368,248v64c0,22.09-50.14,40-112,40s-112-17.91-112-40V248c0,22.09,50.14,40,112,40S368,270.09,368,248Z" fill="#cca400"/><ellipse cx="256" cy="56" rx="112" ry="40" fill="#ffeb99"/></g><g><path d="M168.33,364.5,97.7,299.446A24.027,24.027,0,0,0,80,292.569V224a24.027,24.027,0,0,0-24-24H40a24.028,24.028,0,0,0-24,24V400.47a23.925,23.925,0,0,0,6.871,16.814l54.834,55.664a7.94,7.94,0,0,1,2.3,5.613V496a8,8,0,0,0,8,8h80a8,8,0,0,0,8-8V416.017l.07-33.82A24.02,24.02,0,0,0,168.33,364.5Zm-8.26,17.668L160,416v72H96v-9.439a23.841,23.841,0,0,0-6.9-16.845L34.293,406.08A7.991,7.991,0,0,1,32,400.47V224a8.009,8.009,0,0,1,8-8H56a8.009,8.009,0,0,1,8,8v75.467c-.037.037-.08.069-.117.106l-11.31,11.31a24,24,0,0,0,0,33.944l50.91,50.91A8,8,0,1,0,114.8,384.423l-50.91-50.91a8.01,8.01,0,0,1,0-11.316L75.2,310.886a7.969,7.969,0,0,1,11.314,0q.115.117.237.228L157.5,376.272a7.986,7.986,0,0,1,2.571,5.89Z"/><path d="M472.07,200h-16a24.027,24.027,0,0,0-24,24v68.569a24,24,0,0,0-17.7,6.876l-70.623,65.042A24.026,24.026,0,0,0,336,382.2l.07,33.8v80a8,8,0,0,0,8,8h80a8,8,0,0,0,8-8V478.56a8.051,8.051,0,0,1,2.3-5.616l54.853-55.684a23.9,23.9,0,0,0,6.847-16.79V224A24.027,24.027,0,0,0,472.07,200Zm8,200.47a7.973,7.973,0,0,1-2.269,5.586l-54.825,55.656a23.838,23.838,0,0,0-6.906,16.848V488h-64V415.983l-.07-33.82h0a7.988,7.988,0,0,1,2.58-5.9l70.74-65.151c.08-.074.159-.15.237-.227a7.973,7.973,0,0,1,11.317,0l11.31,11.309a8.012,8.012,0,0,1,0,11.316l-50.911,50.91a8,8,0,0,0,11.314,11.314l50.91-50.91a24,24,0,0,0,0-33.944l-11.308-11.308c-.038-.037-.081-.07-.119-.107V224a8.009,8.009,0,0,1,8-8h16a8.009,8.009,0,0,1,8,8Z"/><path d="M337.89,20.18C315.89,12.33,286.81,8,256,8s-59.89,4.33-81.89,12.18C142.61,31.43,136,45.87,136,56V312c0,18.35,20.73,29.61,38.11,35.82,22,7.85,51.08,12.18,81.89,12.18s59.89-4.33,81.89-12.18C355.27,341.61,376,330.35,376,312V56C376,45.87,369.39,31.43,337.89,20.18ZM360,312c0,5.28-7.22,13.51-27.49,20.75C312.19,340,285.02,344,256,344s-56.19-4-76.51-11.25C159.22,325.51,152,317.28,152,312V273.03a96.23,96.23,0,0,0,22.11,10.79c22,7.85,51.08,12.18,81.89,12.18s59.89-4.33,81.89-12.18A96.23,96.23,0,0,0,360,273.03Zm0-64c0,5.28-7.22,13.51-27.49,20.75C312.19,276,285.02,280,256,280c-63.49,0-104-18.95-104-32V209.03a96.23,96.23,0,0,0,22.11,10.79c22,7.85,51.08,12.18,81.89,12.18s59.89-4.33,81.89-12.18A96.23,96.23,0,0,0,360,209.03Zm0-64c0,5.28-7.22,13.51-27.49,20.75C312.19,212,285.02,216,256,216c-63.49,0-104-18.95-104-32V145.03a96.23,96.23,0,0,0,22.11,10.79c22,7.85,51.08,12.18,81.89,12.18s59.89-4.33,81.89-12.18A96.23,96.23,0,0,0,360,145.03Zm0-64c0,5.28-7.22,13.51-27.49,20.75C312.19,148,285.02,152,256,152c-63.49,0-104-18.95-104-32V81.03a96.23,96.23,0,0,0,22.11,10.79C196.11,99.67,225.19,104,256,104s59.89-4.33,81.89-12.18A96.23,96.23,0,0,0,360,81.03ZM332.51,76.75C312.19,84,285.02,88,256,88c-63.49,0-104-18.95-104-32,0-5.28,7.22-13.51,27.49-20.75C199.81,28,226.98,24,256,24c63.49,0,104,18.95,104,32C360,61.28,352.78,69.51,332.51,76.75Z"/><circle cx="176" cy="112" r="8"/><circle cx="176" cy="176" r="8"/><circle cx="176" cy="240" r="8"/><circle cx="176" cy="304" r="8"/><path d="M234.343,69.657a8,8,0,0,0,11.314,0l24-24a8,8,0,0,0-11.314-11.314l-24,24A8,8,0,0,0,234.343,69.657Z"/><path d="M216,64a7.976,7.976,0,0,0,5.657-2.343l16-16a8,8,0,0,0-11.314-11.314l-16,16A8,8,0,0,0,216,64Z"/><path d="M266.343,69.657a8,8,0,0,0,11.314,0l8-8a8,8,0,0,0-11.314-11.314l-8,8A8,8,0,0,0,266.343,69.657Z"/></g></g></svg>
